<svg width="238" height="276" viewBox="0 0 238 276" fill="none" xmlns="http://www.w3.org/2000/svg">
<path d="M119.094 2.93994C118.849 2.93994 118.519 2.97771 118.254 2.98188V3.02377C103.628 3.19416 68.0726 6.28948 54.9929 38.1591C48.4742 29.4946 54.9875 38.1618 33.9622 18.2192C33.9622 18.2192 7.58252 44.0669 43.5752 62.4218C56.077 178.414 30.6069 222.986 104.612 221.388C108.828 221.297 113.457 221.358 118.255 221.472C118.297 221.473 118.338 221.471 118.38 221.472C119.121 221.49 119.812 221.493 120.563 221.514V221.43C125.366 221.316 129.987 221.255 134.206 221.346C208.21 222.939 182.741 178.367 195.243 62.3798C231.235 44.0236 204.856 18.1771 204.856 18.1771C183.83 38.1198 190.344 29.4521 183.825 38.1171C170.305 5.1713 132.698 2.93875 119.094 2.93875L119.094 2.93994Z" fill="#333333" stroke="black" stroke-width="5.81004" stroke-linecap="round" stroke-linejoin="round"/>
<path d="M190.773 196.181C190.773 238.709 159.575 273.186 121.091 273.186C82.6064 273.186 51.4082 238.709 51.4082 196.181C51.4082 153.654 82.6064 119.177 121.091 119.177C159.575 119.177 190.773 153.654 190.773 196.181Z" fill="#93939F" stroke="black" stroke-width="2.68665" stroke-linecap="round" stroke-linejoin="round"/>
<path d="M120.048 120.076C157.475 121.406 187.465 155.337 187.465 197.021C187.465 236.363 160.768 268.779 126.303 273.421C150.351 266.707 168.534 235.304 168.534 197.567C168.534 156.613 147.13 123.109 120.049 120.536V120.075L120.048 120.076Z" fill="#7F7F8D"/>
<path d="M119.86 118.934C82.4326 120.265 52.4421 154.196 52.4421 195.879C52.4421 235.221 79.1389 267.637 113.604 272.28C89.5562 265.566 71.3732 234.162 71.3732 196.425C71.3732 155.472 92.7774 121.967 119.858 119.395V118.933L119.86 118.934Z" fill="#C1C1C8"/>
<path d="M93.8399 31.4716C76.5651 31.4716 62.5356 47.6906 62.5356 67.6789C62.5356 87.6632 76.5651 103.885 93.8399 103.885C103.992 103.885 112.999 98.2782 118.718 89.6016C124.435 98.2836 133.463 103.885 143.621 103.885C160.891 103.885 174.921 87.6632 174.921 67.6789C174.921 47.6906 160.891 31.4716 143.621 31.4716C133.465 31.4716 124.435 37.0763 118.718 45.7563C112.999 37.0819 103.99 31.4716 93.8399 31.4716Z" fill="white" stroke="black" stroke-width="5.48443" stroke-linecap="round"/>
<g opacity="0.33745" filter="url(#filter0_f_574_75)">
<path d="M159.218 34.9554C159.601 37.2532 159.782 39.6399 159.782 42.0661C159.782 62.7076 145.317 79.4392 127.482 79.4392C116.99 79.4392 107.632 73.6651 101.727 64.6978C95.8206 73.6591 86.5455 79.4392 76.0599 79.4392C70.8583 79.4392 65.9345 78.0228 61.5786 75.4937C64.4518 92.7411 77.5734 105.801 93.3156 105.801C103.801 105.801 113.12 99.9774 119.027 91.0161C124.931 99.9833 134.246 105.801 144.737 105.801C162.575 105.801 177.081 89.0246 177.081 68.3845C177.081 53.7583 169.802 41.1016 159.218 34.9559L159.218 34.9554Z" fill="#A5A5A5"/>
</g>
<path d="M116.723 70.1347C116.723 75.1389 112.664 79.1962 107.66 79.1962C102.658 79.1962 98.5984 75.1389 98.5984 70.1347C98.5984 65.1284 102.658 61.0712 107.66 61.0712C112.666 61.0731 116.723 65.1284 116.723 70.1347Z" fill="black" stroke="black" stroke-width="3.47626" stroke-linecap="round"/>
<path d="M106.75 66.9605C106.75 68.2581 105.696 69.3097 104.398 69.3097C103.101 69.3097 102.049 68.2581 102.049 66.9605C102.049 65.663 103.101 64.6095 104.398 64.6095C105.696 64.6095 106.75 65.663 106.75 66.9605Z" fill="white"/>
<path d="M139.673 70.1347C139.673 75.1389 135.615 79.1962 130.611 79.1962C125.605 79.1962 121.548 75.1389 121.548 70.1347C121.548 65.1284 125.605 61.0712 130.611 61.0712C135.615 61.0731 139.673 65.1284 139.673 70.1347Z" fill="black" stroke="black" stroke-width="3.47626" stroke-linecap="round"/>
<path d="M129.699 66.9605C129.699 68.2581 128.647 69.3097 127.35 69.3097C126.052 69.3097 125 68.2581 125 66.9605C125 65.663 126.052 64.6095 127.35 64.6095C128.647 64.6095 129.699 65.663 129.699 66.9605Z" fill="white"/>
<path d="M31.5912 27.6163C31.5912 27.6163 17.946 43.431 41.6654 58.4263C45.4734 54.7369 46.0179 54.0843 50.4972 50.5325V47.678C45.0708 44.7183 47.5755 40.8474 38.726 29.8457L31.5912 27.6153V27.6163Z" fill="url(#paint0_linear_574_75)" stroke="black" stroke-width="1.3433"/>
<path d="M208.584 28.3283C208.584 28.3283 222.23 44.143 198.51 59.1382C194.702 55.4489 194.158 54.7963 189.678 51.2445V48.39C195.105 45.4303 192.6 41.5594 201.45 30.5577L208.584 28.3272V28.3283Z" fill="url(#paint1_linear_574_75)" stroke="black" stroke-width="1.3433"/>
<path d="M111.034 122.319C148.461 123.65 178.452 157.581 178.452 199.265C178.452 238.606 151.755 271.022 117.29 275.665C141.338 268.951 159.521 237.547 159.521 199.81C159.521 158.857 138.116 125.352 111.036 122.78V122.318L111.034 122.319Z" fill="#7F7F8D"/>
<path d="M119.376 93.0888C107.831 93.0888 97.8738 98.7799 93.3079 106.979C82.7765 110.231 76.0129 115.333 76.0129 121.058C76.0129 122.634 76.559 124.178 77.5242 125.633C76.7991 127.322 76.4327 129.081 76.4327 130.886C76.4327 143.929 96.4318 154.496 121.097 154.496C145.763 154.496 165.762 143.929 165.762 130.886C165.762 128.81 165.244 126.793 164.293 124.875C164.962 123.65 165.342 122.364 165.342 121.058C165.342 114.79 157.222 109.28 144.94 106.112C140.173 98.3782 130.513 93.0888 119.376 93.0888H119.376Z" fill="url(#paint2_linear_574_75)" stroke="black" stroke-width="2.6866"/>
<path d="M135.729 100.975C135.729 109.686 128.667 116.748 119.956 116.748C111.245 116.748 104.183 109.687 104.183 100.975C104.183 92.2643 111.244 85.2023 119.956 85.2023C128.667 85.2023 135.729 92.264 135.729 100.975Z" fill="black"/>
<path d="M118.689 134.973H100.812V162.215H118.689V134.973Z" fill="url(#paint3_linear_574_75)" stroke="black" stroke-width="3.04513"/>
<path d="M136.784 134.476H118.906V161.718H136.784V134.476Z" fill="url(#paint4_linear_574_75)" stroke="black" stroke-width="3.04513"/>
<path d="M83.8994 125.771C109.872 140.268 134.162 137.928 157.131 122.391" stroke="black" stroke-width="5.3732"/>
<path d="M67.0567 177.778C67.0567 187.042 54.9057 194.552 39.9157 194.552C24.9257 194.552 12.7747 187.042 12.7747 177.778C12.7747 168.514 24.9257 161.004 39.9157 161.004C54.9057 161.004 67.0567 168.514 67.0567 177.778V177.778Z" fill="url(#paint5_radial_574_75)" stroke="black" stroke-width="2" stroke-linecap="round" stroke-linejoin="round"/>
<path d="M46.5894 182.014C51.5108 187.444 57.1704 190.257 57.1704 190.257C57.1704 190.257 54.1683 203.598 46.9044 207.246C46.9044 207.246 31.9084 178.366 40.4087 171.579C40.409 171.58 42.2453 177.221 46.5891 182.014L46.5894 182.014Z" fill="url(#paint6_linear_574_75)" stroke="black" stroke-width="0.8386"/>
<path d="M40.3196 171.264C40.629 171.708 40.5903 172.298 40.2318 172.584C38.5274 173.943 37.8985 176.358 38.0288 179.524C38.1622 182.667 39.083 186.449 40.3224 190.159C41.7441 194.426 43.5738 198.607 45.0468 201.713C45.9504 203.619 46.7146 205.113 47.1711 205.984C51.8337 203.132 54.6953 195.664 55.7813 191.986C56.1677 190.704 56.3461 189.91 56.3455 189.908C56.4567 189.419 56.9185 189.177 57.3767 189.371C57.837 189.563 58.1209 190.118 58.01 190.609C57.9499 190.67 55.0767 204.147 47.35 208.128C46.9578 208.325 46.451 208.119 46.1988 207.66C46.1825 207.625 41.6603 199.393 38.7262 190.597C37.4527 186.765 36.4719 182.827 36.32 179.351C36.1644 175.892 36.8651 172.782 39.1126 170.984C39.189 170.923 39.2737 170.88 39.363 170.856C39.6926 170.766 40.0779 170.918 40.3202 171.265L40.3196 171.264Z" fill="black" stroke="black" stroke-width="0.8386"/>
<path d="M21.631 180.076C23.4699 187.17 27.1774 192.288 27.1774 192.288C27.1774 192.288 18.3264 202.712 10.1991 202.572C10.1991 202.572 10.3199 170.031 20.9992 167.964C20.999 167.965 20.0077 173.814 21.6305 180.076L21.631 180.076Z" fill="url(#paint7_linear_574_75)" stroke="black" stroke-width="0.8386"/>
<path d="M21.0666 167.643C21.1347 168.18 20.8265 168.685 20.3763 168.772C18.2356 169.185 16.5577 171.032 15.2038 173.897C13.863 176.743 12.9234 180.52 12.2994 184.382C11.5783 188.821 11.2585 193.374 11.1218 196.808C11.0377 198.916 11.0209 200.594 11.0212 201.577C16.4748 201.215 22.4757 195.928 25.1447 193.175C26.0816 192.219 26.6084 191.598 26.6087 191.596C26.9344 191.214 27.4555 191.214 27.7716 191.598C28.0898 191.983 28.0838 192.606 27.7579 192.989C27.6764 193.015 18.8764 203.619 10.1846 203.559C9.74584 203.552 9.39248 203.134 9.38227 202.61C9.38375 202.572 9.199 193.181 10.6826 184.028C11.333 180.043 12.2918 176.1 13.7707 172.95C15.2381 169.814 17.3023 167.385 20.1276 166.835C20.2234 166.817 20.3183 166.818 20.4087 166.838C20.7425 166.911 21.0129 167.225 21.0664 167.645L21.0666 167.643Z" fill="black" stroke="black" stroke-width="0.8386"/>
<path d="M33.7333 181.96C36.2592 188.839 40.4509 193.569 40.4509 193.569C40.4509 193.569 32.6652 204.811 24.5634 205.469C24.5634 205.469 21.4913 173.073 31.9164 169.969C31.9163 169.97 31.5035 175.887 33.7328 181.96L33.7333 181.96Z" fill="url(#paint8_linear_574_75)" stroke="black" stroke-width="0.8386"/>
<path d="M31.952 169.643C32.0724 170.17 31.8152 170.703 31.3757 170.833C29.2859 171.455 27.7973 173.457 26.7309 176.441C25.6758 179.405 25.1113 183.256 24.8691 187.16C24.587 191.649 24.7153 196.211 24.9162 199.643C25.0392 201.748 25.1872 203.42 25.2839 204.399C30.6757 203.503 36.129 197.653 38.515 194.651C39.3537 193.608 39.817 192.938 39.8171 192.936C40.1038 192.524 40.6224 192.473 40.9746 192.824C41.3291 193.176 41.3842 193.797 41.0974 194.21C41.0189 194.244 33.3015 205.66 24.6458 206.453C24.2084 206.489 23.8158 206.108 23.7542 205.587C23.752 205.549 22.6469 196.222 23.2254 186.967C23.4818 182.937 24.0491 178.919 25.2119 175.64C26.3646 172.375 28.1805 169.754 30.9383 168.93C31.0318 168.903 31.1264 168.895 31.2183 168.906C31.5576 168.946 31.8576 169.232 31.952 169.644L31.952 169.643Z" fill="black" stroke="black" stroke-width="0.8386"/>
<path d="M171.167 149.478C171.167 158.742 183.318 166.252 198.308 166.252C213.298 166.252 225.449 158.742 225.449 149.478C225.449 140.214 213.298 132.704 198.308 132.704C183.318 132.704 171.167 140.214 171.167 149.478V149.478Z" fill="url(#paint9_radial_574_75)" stroke="black" stroke-width="2" stroke-linecap="round" stroke-linejoin="round"/>
<path d="M191.639 153.711C186.717 159.141 181.058 161.954 181.058 161.954C181.058 161.954 184.06 175.295 191.324 178.943C191.324 178.943 206.32 150.063 197.819 143.276C197.819 143.277 195.983 148.918 191.639 153.711L191.639 153.711Z" fill="url(#paint10_linear_574_75)" stroke="black" stroke-width="0.8386"/>
<path d="M197.909 142.961C197.599 143.405 197.638 143.995 197.996 144.281C199.701 145.64 200.33 148.055 200.199 151.221C200.066 154.364 199.145 158.146 197.906 161.856C196.484 166.123 194.654 170.304 193.181 173.41C192.278 175.316 191.514 176.81 191.057 177.681C186.395 174.829 183.533 167.361 182.447 163.683C182.061 162.401 181.882 161.607 181.883 161.605C181.772 161.116 181.31 160.874 180.852 161.068C180.391 161.26 180.107 161.815 180.218 162.306C180.278 162.367 183.152 175.844 190.878 179.825C191.27 180.022 191.777 179.816 192.029 179.357C192.046 179.322 196.568 171.09 199.502 162.294C200.776 158.462 201.756 154.524 201.908 151.048C202.064 147.589 201.363 144.479 199.116 142.681C199.039 142.62 198.955 142.577 198.865 142.553C198.536 142.463 198.15 142.615 197.908 142.962L197.909 142.961Z" fill="black" stroke="black" stroke-width="0.8386"/>
<path d="M216.597 151.776C214.759 158.87 211.051 163.988 211.051 163.988C211.051 163.988 219.902 174.412 228.029 174.272C228.029 174.272 227.909 141.731 217.229 139.664C217.229 139.665 218.221 145.514 216.598 151.776L216.597 151.776Z" fill="url(#paint11_linear_574_75)" stroke="black" stroke-width="0.8386"/>
<path d="M217.162 139.344C217.094 139.88 217.402 140.385 217.852 140.472C219.993 140.885 221.671 142.732 223.025 145.597C224.366 148.443 225.305 152.22 225.929 156.082C226.65 160.521 226.97 165.074 227.107 168.509C227.191 170.616 227.208 172.294 227.207 173.277C221.754 172.915 215.753 167.628 213.084 164.875C212.147 163.919 211.62 163.298 211.62 163.296C211.294 162.914 210.773 162.914 210.457 163.298C210.139 163.683 210.145 164.306 210.471 164.689C210.552 164.715 219.352 175.319 228.044 175.259C228.483 175.252 228.836 174.834 228.846 174.31C228.845 174.272 229.03 164.881 227.546 155.728C226.895 151.743 225.937 147.8 224.458 144.65C222.99 141.514 220.926 139.085 218.101 138.535C218.005 138.517 217.91 138.518 217.82 138.538C217.486 138.611 217.216 138.925 217.162 139.345L217.162 139.344Z" fill="black" stroke="black" stroke-width="0.8386"/>
<path d="M204.495 153.65C201.969 160.529 197.778 165.259 197.778 165.259C197.778 165.259 205.563 176.501 213.665 177.159C213.665 177.159 216.737 144.763 206.312 141.659C206.312 141.66 206.725 147.577 204.496 153.65L204.495 153.65Z" fill="url(#paint12_linear_574_75)" stroke="black" stroke-width="0.8386"/>
<path d="M206.276 141.333C206.156 141.86 206.413 142.393 206.853 142.523C208.943 143.145 210.431 145.147 211.498 148.131C212.553 151.095 213.117 154.946 213.359 158.85C213.642 163.339 213.513 167.901 213.312 171.333C213.189 173.438 213.041 175.11 212.945 176.089C207.553 175.193 202.099 169.343 199.714 166.341C198.875 165.298 198.412 164.628 198.411 164.626C198.125 164.214 197.606 164.163 197.254 164.514C196.899 164.866 196.844 165.487 197.131 165.9C197.21 165.934 204.927 177.35 213.583 178.143C214.02 178.179 214.413 177.798 214.474 177.277C214.477 177.239 215.582 167.912 215.003 158.657C214.747 154.627 214.179 150.609 213.017 147.33C211.864 144.065 210.048 141.444 207.29 140.62C207.197 140.593 207.102 140.585 207.01 140.596C206.671 140.636 206.371 140.922 206.277 141.334L206.276 141.333Z" fill="black" stroke="black" stroke-width="0.8386"/>
<defs>
<filter id="filter0_f_574_75" x="55.7308" y="29.1076" width="127.198" height="82.541" filterUnits="userSpaceOnUse" color-interpolation-filters="sRGB">
<feFlood flood-opacity="0" result="BackgroundImageFix"/>
<feBlend mode="normal" in="SourceGraphic" in2="BackgroundImageFix" result="shape"/>
<feGaussianBlur stdDeviation="2.92388" result="effect1_foregroundBlur_574_75"/>
</filter>
<linearGradient id="paint0_linear_574_75" x1="27.014" y1="43.0495" x2="51.1666" y2="43.0495" gradientUnits="userSpaceOnUse">
<stop stop-color="#F1AAC2"/>
<stop offset="1" stop-color="#E5638F"/>
</linearGradient>
<linearGradient id="paint1_linear_574_75" x1="213.165" y1="43.7534" x2="189.013" y2="43.7534" gradientUnits="userSpaceOnUse">
<stop stop-color="#F1AAC2"/>
<stop offset="1" stop-color="#E5638F"/>
</linearGradient>
<linearGradient id="paint2_linear_574_75" x1="100.57" y1="104.628" x2="156.948" y2="148.567" gradientUnits="userSpaceOnUse">
<stop stop-color="#FFCEAE"/>
<stop offset="1" stop-color="#FFB280"/>
</linearGradient>
<linearGradient id="paint3_linear_574_75" x1="99.2702" y1="148.593" x2="120.212" y2="148.593" gradientUnits="userSpaceOnUse">
<stop stop-color="#8A8A8A"/>
<stop offset="0.28571" stop-color="#F1F1F1"/>
<stop offset="1" stop-color="white"/>
</linearGradient>
<linearGradient id="paint4_linear_574_75" x1="117.364" y1="148.082" x2="138.306" y2="148.082" gradientUnits="userSpaceOnUse">
<stop stop-color="#8A8A8A"/>
<stop offset="0.28571" stop-color="#F1F1F1"/>
<stop offset="1" stop-color="white"/>
</linearGradient>
<radialGradient id="paint5_radial_574_75" cx="0" cy="0" r="1" gradientUnits="userSpaceOnUse" gradientTransform="translate(44.0605 169.474) rotate(110.14) scale(25.6089 29.9856)">
<stop stop-color="#7E7E8D"/>
<stop offset="1" stop-color="#18181B"/>
</radialGradient>
<linearGradient id="paint6_linear_574_75" x1="37.3894" y1="189.344" x2="57.6494" y2="189.344" gradientUnits="userSpaceOnUse">
<stop stop-color="#FFC6A1"/>
<stop offset="0.5" stop-color="#FFBA8D"/>
<stop offset="1" stop-color="#FF7F2C"/>
</linearGradient>
<linearGradient id="paint7_linear_574_75" x1="10.0799" y1="182.298" x2="28.0256" y2="191.701" gradientUnits="userSpaceOnUse">
<stop stop-color="#FFC6A1"/>
<stop offset="0.5" stop-color="#FFBA8D"/>
<stop offset="1" stop-color="#FF7F2C"/>
</linearGradient>
<linearGradient id="paint8_linear_574_75" x1="22.4559" y1="185.305" x2="41.2375" y2="192.902" gradientUnits="userSpaceOnUse">
<stop stop-color="#FFC6A1"/>
<stop offset="0.5" stop-color="#FFBA8D"/>
<stop offset="1" stop-color="#FF7F2C"/>
</linearGradient>
<radialGradient id="paint9_radial_574_75" cx="0" cy="0" r="1" gradientUnits="userSpaceOnUse" gradientTransform="translate(194.163 141.174) rotate(69.8603) scale(25.6089 29.9856)">
<stop stop-color="#7E7E8D"/>
<stop offset="1" stop-color="#18181B"/>
</radialGradient>
<linearGradient id="paint10_linear_574_75" x1="200.839" y1="161.041" x2="180.579" y2="161.041" gradientUnits="userSpaceOnUse">
<stop stop-color="#FFC6A1"/>
<stop offset="0.5" stop-color="#FFBA8D"/>
<stop offset="1" stop-color="#FF7F2C"/>
</linearGradient>
<linearGradient id="paint11_linear_574_75" x1="228.149" y1="153.998" x2="210.203" y2="163.401" gradientUnits="userSpaceOnUse">
<stop stop-color="#FFC6A1"/>
<stop offset="0.5" stop-color="#FFBA8D"/>
<stop offset="1" stop-color="#FF7F2C"/>
</linearGradient>
<linearGradient id="paint12_linear_574_75" x1="215.773" y1="156.995" x2="196.991" y2="164.592" gradientUnits="userSpaceOnUse">
<stop stop-color="#FFC6A1"/>
<stop offset="0.5" stop-color="#FFBA8D"/>
<stop offset="1" stop-color="#FF7F2C"/>
</linearGradient>
</defs>
</svg>
